P2
3 4
255
46 23 5
0 225 67
15 56 117
100 12 255
