P3
3 2
255
255 46 127  0 255 0  0 0 255
255 255 56  32 255 255  255 255 255
